<svg width="199" height="100" viewBox="0 0 199 100" fill="none" xmlns="http://www.w3.org/2000/svg">
<path d="M66.0144 70.7686H55.0704V84.8806H39.9024V70.7686H3.71038V60.3046L35.3904 17.6806H51.7104L22.3344 58.0966H40.3824V45.5206H55.0704V58.0966H66.0144V70.7686ZM99.4659 86.0326C93.8979 86.0326 88.9379 84.6566 84.5859 81.9046C80.2339 79.1526 76.8099 75.1846 74.3139 70.0006C71.8819 64.7526 70.6659 58.5126 70.6659 51.2806C70.6659 44.0486 71.8819 37.8406 74.3139 32.6566C76.8099 27.4086 80.2339 23.4086 84.5859 20.6566C88.9379 17.9046 93.8979 16.5286 99.4659 16.5286C105.034 16.5286 109.994 17.9046 114.346 20.6566C118.698 23.4086 122.09 27.4086 124.522 32.6566C127.018 37.8406 128.266 44.0486 128.266 51.2806C128.266 58.5126 127.018 64.7526 124.522 70.0006C122.09 75.1846 118.698 79.1526 114.346 81.9046C109.994 84.6566 105.034 86.0326 99.4659 86.0326ZM99.4659 72.8806C103.562 72.8806 106.762 71.1206 109.066 67.6006C111.434 64.0806 112.618 58.6406 112.618 51.2806C112.618 43.9206 111.434 38.4806 109.066 34.9606C106.762 31.4406 103.562 29.6806 99.4659 29.6806C95.4339 29.6806 92.2339 31.4406 89.8659 34.9606C87.5619 38.4806 86.4099 43.9206 86.4099 51.2806C86.4099 58.6406 87.5619 64.0806 89.8659 67.6006C92.2339 71.1206 95.4339 72.8806 99.4659 72.8806ZM197.358 70.7686H186.414V84.8806H171.246V70.7686H135.054V60.3046L166.734 17.6806H183.054L153.678 58.0966H171.726V45.5206H186.414V58.0966H197.358V70.7686Z" fill="#FF6060"/>
</svg>
